<svg width="201" height="201" viewBox="0 0 201 201" fill="none" xmlns="http://www.w3.org/2000/svg">
<rect width="201" height="201" rx="30" fill="#85586F"/>
<path d="M130 101L114 101C108.477 101 104 105.477 104 111L104 130C104 135.523 108.477 140 114 140L122.5 140C122.5 140 123.034 144.62 122.5 147.5C121.774 151.416 115.791 150.806 112.5 152.5C108.823 154.393 107.917 158.542 109.5 162.5C112.5 170 128.216 163.652 135 155C140.638 147.809 140 136.5 140 136.5L140 111C140 105.477 135.523 101 130 101Z" fill="#EDE1D6"/>
<path d="M171 101L155 101C149.477 101 145 105.477 145 111L145 130C145 135.523 149.477 140 155 140L163.5 140C163.5 140 164.034 144.62 163.5 147.5C162.774 151.416 156.791 150.806 153.5 152.5C149.823 154.393 148.917 158.542 150.5 162.5C153.5 170 169.216 163.652 176 155C181.638 147.809 181 136.5 181 136.5L181 111C181 105.477 176.523 101 171 101Z" fill="#EDE1D6"/>
<path d="M74.0217 100.827L90.0217 100.827C95.5446 100.827 100.022 96.3494 100.022 90.8265L100.022 71.8265C100.022 66.3037 95.5446 61.8265 90.0217 61.8265L81.5217 61.8265C81.5217 61.8265 80.9875 57.2063 81.5217 54.3265C82.2481 50.4108 88.2309 51.0209 91.5217 49.3265C95.1988 47.4333 96.1049 43.2844 94.5217 39.3265C91.5217 31.8265 75.8054 38.1748 69.0217 46.8265C63.3838 54.0171 64.0217 65.3265 64.0217 65.3265L64.0217 90.8265C64.0217 96.3494 68.4989 100.827 74.0217 100.827Z" fill="#EDE1D6"/>
<path d="M33.0217 100.827L49.0217 100.827C54.5446 100.827 59.0217 96.3494 59.0217 90.8265L59.0217 71.8265C59.0217 66.3037 54.5446 61.8265 49.0217 61.8265L40.5217 61.8265C40.5217 61.8265 39.9875 57.2063 40.5217 54.3265C41.2481 50.4108 47.2309 51.0209 50.5217 49.3265C54.1988 47.4333 55.1049 43.2844 53.5217 39.3265C50.5217 31.8265 34.8054 38.1748 28.0217 46.8265C22.3838 54.0171 23.0217 65.3265 23.0217 65.3265L23.0217 90.8265C23.0217 96.3494 27.4989 100.827 33.0217 100.827Z" fill="#EDE1D6"/>
</svg>
